<?xml version="1.0" encoding="UTF-8" standalone="no"?>
<!-- Creator: CorelDRAW X8 -->

<svg
   xmlns:dc="http://purl.org/dc/elements/1.1/"
   xmlns:cc="http://creativecommons.org/ns#"
   xmlns:rdf="http://www.w3.org/1999/02/22-rdf-syntax-ns#"
   xmlns:svg="http://www.w3.org/2000/svg"
   xmlns="http://www.w3.org/2000/svg"
   xmlns:sodipodi="http://sodipodi.sourceforge.net/DTD/sodipodi-0.dtd"
   xmlns:inkscape="http://www.inkscape.org/namespaces/inkscape"
   xml:space="preserve"
   width="85mm"
   height="55mm"
   version="1.1"
   style="clip-rule:evenodd;fill-rule:evenodd;image-rendering:optimizeQuality;shape-rendering:geometricPrecision;text-rendering:geometricPrecision"
   viewBox="0 0 8499.9998 5500.0001"
   id="svg4520"
   sodipodi:docname="Безымянный-4.svg"
   inkscape:version="0.92.1 r15371"><metadata
     id="metadata4524"><rdf:RDF><cc:Work
         rdf:about=""><dc:format>image/svg+xml</dc:format><dc:type
           rdf:resource="http://purl.org/dc/dcmitype/StillImage" /><dc:title></dc:title></cc:Work></rdf:RDF></metadata><sodipodi:namedview
     pagecolor="#282c34"
     bordercolor="#282c34"
     borderopacity="1"
     objecttolerance="10"
     gridtolerance="10"
     guidetolerance="10"
     inkscape:pageopacity="0"
     inkscape:pageshadow="2"
     inkscape:window-width="1440"
     inkscape:window-height="837"
     id="namedview4522"
     showgrid="false"
     inkscape:zoom="1.1367284"
     inkscape:cx="120.79332"
     inkscape:cy="136.11719"
     inkscape:window-x="-8"
     inkscape:window-y="-8"
     inkscape:window-maximized="1"
     inkscape:current-layer="svg4520"
     inkscape:snap-page="true"
     units="mm" /><defs
     id="defs4487"><style
       type="text/css"
       id="style4485"><![CDATA[
    .fil1 {fill:#282c34}
    .fil2 {fill:#282c34}
    .fil0 {fill:#282c34}
   ]]></style></defs><g
     id="g4627"
     transform="matrix(0.40977962,0,0,0.38924574,72.336826,-1792.9844)"><path
       class="fil0"
       d="m 4884.7931,11517.621 c -181,214 -465,-164 -654,-161 -449,4 -333,-393 -216,-657 46,-105 40,-361 -123,-509 -249,-225.0003 -347,-268.0003 -627,-275.0003 -324,-9 -453,-6 -727,182.0003 -276,190 -556,117 -879,123 -583,11 -936.99999,117 -1216.99999,663 -252,515 -82,1025 221,1472 270,390 607.99999,362 1032.99999,335 -44,251 -126,1093 22,1250 126,95 551,56 724,52 259,-6 454,-69 711,-80 491,-18 996,-1 1491,-4 213,-1 165,21 28,175 -199,224 -197,156 -251,481 -45,270 -26,582 98,831 119,238 292,-36 314,655 5,234 32,543 -67,757 -62,136 -101,167 -154,317 -215,619 -134,1065 560,1258 279,78 611,52 872,-74 309,-149 46,-234 538,-229 383,3 570,-51 822,-365 230,-287 89,-301 390,120 297,416 612,349 1067,349 182,0 403,19 578,-35 307,-94 610.9999,38 865.9999,-92 186,-95 252,-72 456,-46 405,50 694,49 1103,1 128,-14 379,30 531,29 254,-2 722,38 935,-69 151,-76 274,-244 427,-353 372,657 755,587 1437,565 224,-8 376,-76 607,-88 324,-17 570,26 836,-207 382,-333 32,-63 441,172 233,133 969,133 1207,32 298,-126 365,-77 665,-105 283,-29 471,-84 656,-312 203,-249 341,-432 306,-772 -9,-93 -22,-174 -26,-269 -8,-208 -67,-295 -127,-486 -16,-48 -30,-96 -46,-143 -83,-255 -70,-383 -69,-644 1,-338 -19,-555 -212,-845 -105,-155 -203,-186 -383,-168 -295,62 -422,166 -765,107 -62,-11 -110,-25 -171,-43 -367,-122 -420,-409 -427,-756 -13,-648 469,-551 888,-1254 173,-288 296,-715 362,-1045 137,-685 -54,-1484.0003 -636,-1960.0003 -290,-236 -124,-76 -94,-498 29,-416 30,-899 -128,-1290 -46,-113 -100,-220 -157,-328 -370,-594 -954,-566 -1480,-183 -316,230 -1027,-186 -1640,566 l -17,22 -26,33 -155,233 c -50,-189 -343,-515 -529,-564 51,-77 106,-118 106,-247 7,-690 60,-1477 -431,-2032 -236,-265 -687,-215 -996,-131 -334,90 -287,223 -405,287 -179,68 -658,16 -928,86 -69,18 -123,39 -188,67 -368,228 -552,301 -734,736 -131,312 -135,602 -97,934 20,179 62,325 151,481 108,177 184,297 -4,446 -40,32 -74,59 -113,93 -176,164 -144,137 -237,-124 -133,-370 -390.9999,-630 -725.9999,-830 -757,-437 -2700,-390 -3449,75 -416,281 -813,678 -940,1177 -128,505 -106,1007 25,1509 106,392.0003 359,621.0003 731,769.0003 258,102 504,63 773,55 76,0 54,-12 53,82 -2,298 -25,508 -150,773 -22,46 -332,-138 -386,-156 -470,-158 -966,-251 -1244,79 z"
       id="path4490"
       inkscape:connector-curvature="0"
       style="fill:#282c34" /><path
       class="fil1"
       d="m 7798.7931,9556.6207 c -17,-385 124,-655 75,-930 -140,-229 -1263,-195 -1143,266 26,103 199,234 254,351 83,174 129,1912.0003 81,2163.0003 -65,345 -438,506 -246,786 215,312 540,131 749,-72 201,-194 364,-370 533,-631 276,-427 159,-540 -238,-694 l -25,-653 186,7 c 74,128 188,567 248,733 402,1113 1149,2406 2410.9999,2632 616,110 1208,-27 1607,-341 154,-122 371,-314 365,-633 -6,-290 -244,-514 -557,-443 -465,105 -1447,1148 -2666.9999,-575 -193,-272 -613,-969 -682,-1386 1458.9999,-221.0003 1506.9999,-2352.0003 -224,-2786.0003 -1508,-379 -3273,460 -2899,2050 278,1179.0003 1408,976.0003 1217,373 -66,-210 -1073,-1043 50,-1572 624,-294 1566,-255 1926,229 499,673 -286,1376 -1021,1126 z"
       id="path4492"
       inkscape:connector-curvature="0"
       style="fill:#fefefe" /><path
       class="fil1"
       d="m 12916.793,5550.6207 c -170,55 -179,172 -336,179 -251,11 -772,-200 -1295,313 -176,173 -346,374 -360,723 -39,962 1055,1077 1843,1428 299,133 475,234 605,489 500,982 -395,1873.0003 -1435,1507.0003 -585,-205.0003 -917,-988.0003 -117,-1214.0003 291,-82 629,-185 488,-568 -94,-252 -472,-329 -781,-281 -573,90 -1016,518 -1059,1145 -137,2027.0003 3114,2303.0003 3768,605 233,-605 112,-1304 -206,-1747 -512,-714 -1789,-773 -2145,-1136 -243,-248 22,-577 317,-630 391,-69 569,153 753,301 156,126 460,438 703,163 213,-239 -232,-1443 -743,-1277 z"
       id="path4494"
       inkscape:connector-curvature="0"
       style="fill:#fefefe" /><path
       class="fil1"
       d="m 16943.793,7430.6207 c -170,55 -179,173 -335,180 -251,11 -773,-201 -1295,312 -176,173 -346,374 -361,724 -39,961 1056,1076 1843,1427.0003 300,133 476,234 606,489 499,982 -396,1874 -1436,1508 -584,-206 -916,-989 -116,-1215 290,-82 628,-185 487,-567 -93,-253 -471,-329.0003 -780,-281 -573,89 -1017,517 -1059,1144 -137,2027 3114,2303 3768,605 233,-605 111,-1303 -206,-1747 -513,-714.0003 -1790,-773.0003 -2145,-1136.0003 -243,-247 22,-577 316,-629 391,-70 570,152 754,301 155,125 459,437 703,163 213,-240 -232,-1443 -744,-1278 z"
       id="path4496"
       inkscape:connector-curvature="0"
       style="fill:#fefefe" /><path
       class="fil1"
       d="m 15537.793,17321.621 c 96,129 125,302 331,274 135,-19 339,-200 400,-264 558,-576 134,-756 -43,-718 l -81,-2084 c 17,-260 181,-377 119,-590 -140,-475 -601,1 -763,196 -188,226 -572,680 0,823 18,335 90,1235 36,1520 -88,465 -574,638 -831,234 -227,-357 -110,-954 267,-1018 229,-39 429,36 445,-297 12,-260 -126,-383 -305,-456 -799,-324 -1273,823 -1119,1691 169,943 908,1427 1544,689 z"
       id="path4498"
       inkscape:connector-curvature="0"
       style="fill:#fefefe" /><path
       class="fil1"
       d="m 9438.7931,17336.621 c 96,129 125,301 331,273 135,-18 338.9999,-200 399.9999,-263 558,-576 134,-756 -42,-719 l -57,-1438 c 9,-512 -748.9999,-421 -661.9999,-26 18,335 83,1044 29,1330 -87,464 -574,638 -831,233 -227,-356 -109,-953 267,-1017 229,-39 429,35 445,-298 12,-259 -126,-383 -304,-455 -800,-324 -1274,822 -1119,1690 168,944 907,1427 1543,690 z"
       id="path4500"
       inkscape:connector-curvature="0"
       style="fill:#fefefe" /><path
       class="fil1"
       d="m 5912.7931,17458.621 c -162,205 -236,497 -521,357 -534,-352 -318,-374 -139,-789 l -32,-1862 c -607,-362 -168,-677 -3,-885 407,-651 1003,-394 758,12 -167,608 -109,534 -97,830 -11,329 13,1173 35,1493 132,397 604,371 797,-100 218,-448 105,-998 -256,-910 -219,53 -411,207 -426,-119 -12,-255 120,-433 291,-578 767,-645 1222,311 1073,1241 -161,1011 -869,1792 -1480,1310 z"
       id="path4502"
       inkscape:connector-curvature="0"
       style="fill:#fefefe" /><path
       class="fil1"
       d="m 11672.793,15240.621 c -70,-528 -239,-619 -717,-184 -239,219 -593,653 100,722 63,1146 132,980 -336,1365 -28,414 287,412 668,384 291,-20 676,-55 788,-276 -22,-193 -178,-264 -283,-363 -160,-151 -160,-243 -166,-518 -10,-415 22,-860 472,-846 516,17 339,1152 272,1539 -49,287 -113,298 81,467 356,80 650,-314 792,-473 509,-567 -11,-654 -108,-723 -48,-521 20,-1174 -331,-1480 -189,-164 -502,-155 -748,-41 -213,99 -343,267 -484,427 z"
       id="path4504"
       inkscape:connector-curvature="0"
       style="fill:#fefefe" /><path
       class="fil1"
       d="m 18348.793,14917.621 c -370,-52 -636,-143 -932,87 -210,163 -395,492 -265,858 99,278 391,373 722,477 299,94 719,130 668,499 -252,251 -530,17 -757,-127 -1267,-804 -564,1239 55,903 194,-105 79,-186 356,-121 975,229 1767,-1103 422,-1546 -136,-45 -276,-90 -419,-144 -177,-66 -290,-112 -270,-331 256,-213 383,-27 615,127 157,103 547,279 621,-21 55,-222 -140,-584 -239,-713 -244,-319 -381,-139 -577,52 z"
       id="path4506"
       inkscape:connector-curvature="0"
       style="fill:#fefefe" /><path
       class="fil1"
       d="m 3217.7931,11659.621 c 26,297 32,620 45,915 7,142 43,351 -28,469 -12,19 -356,234 -35,349 155,55 593,22 768,-97 -44,-301 -250,-108 -261,-577 -15,-613 487,-668 479,106 -3,276 -164,346 -78,563 408,176 695,-388 696,-462 1,-144 -86,-129 -186,-208 -70,-618 29,-1296 -920,-743 -14,-253 -8,-712 -96,-901 -235,-71 -634,243 -589,440 31,131 110,92 205,146 z"
       id="path4508"
       inkscape:connector-curvature="0"
       style="fill:#fefefe" /><g
       transform="translate(-186.20689,3258.6207)"
       id="_2306929401968"><path
         class="fil1"
         d="m 5582,9362 c 298,-27 1088,127 883,-519 -198,-626 -1351,-561 -1320,375 19,585 542,1003 1124,688 360,-195 234,-585 -62,-429 -101,54 -218,134 -360,125 -156,-11 -242,-94 -265,-240 z"
         id="path4510"
         inkscape:connector-curvature="0"
         style="fill:#fefefe" /><path
         class="fil1"
         d="m 5539,9074 c 105,4 287,-2 385,-23 121,-26 233,-121 108,-225 -79,-66 -463,-90 -493,248 z"
         id="path4512"
         inkscape:connector-curvature="0"
         style="fill:#fefefe" /></g><path
       class="fil2"
       d="m 5352.7931,12332.621 c 105,4 287,-2 385,-23 121,-26 233,-121 108,-225 -79,-66 -463,-90 -493,248 z"
       id="path4515"
       inkscape:connector-curvature="0"
       style="fill:#2b2a29" /><path
       class="fil1"
       d="m 2156.7931,11027.621 c 2,1009 203,1380 -74,2146 -58,161 3,633 555,58 206,-215 484,-463 177,-639 l -87,-51 -76,-1477 c 396,13 795,-11 791,-428 -2,-184 -87,-334 -287,-306 -172,25 -192,202 -358,272 -360,153 -1607,-288 -1815.99999,624 -227,990 1024.99999,1244 1126.99999,667 31,-180 -76,-322 -251,-289 -197,38 -358,129 -401,-129 -73,-437 360,-501 700,-448 z"
       id="path4517"
       inkscape:connector-curvature="0"
       style="fill:#fefefe" /><path
       inkscape:connector-curvature="0"
       id="path4567"
       d="m 5361.7888,12296.288 c 11.9259,-87.009 76.5226,-174.269 157.2811,-212.461 81.1762,-38.391 201.9601,-46.067 282.576,-17.96 49.2588,17.175 92.1401,67.166 92.0758,107.342 -0.1058,69.879 -75.5473,122.419 -202.8534,141.284 -29.4441,4.363 -116.6204,9.989 -193.7247,12.502 l -140.19,4.569 z"
       style="fill:#000000;fill-opacity:1;stroke:#000000;stroke-width:8.19047451;stroke-miterlimit:4;stroke-dasharray:none;stroke-dashoffset:0;stroke-opacity:1" /><path
       transform="scale(26.458333)"
       inkscape:connector-curvature="0"
       id="path4605"
       d="m 192.83978,692.72525 c -14.7582,-5.09839 -21.54898,-13.36754 -21.54898,-26.24025 0,-7.29492 5.60099,-25.54234 9.15435,-29.82387 2.92115,-3.51977 4.00754,-33.01927 1.55153,-42.12982 -1.21788,-4.51774 -3.2706,-7.77883 -5.30234,-8.42368 -4.91067,-1.55858 -8.92241,-13.48418 -8.92241,-26.5234 0,-13.00385 2.74635,-20.86383 9.45013,-27.04595 2.54394,-2.346 4.62535,-5.01531 4.62535,-5.93183 0,-1.03851 -16.73954,-1.18699 -44.42574,-0.39405 -70.091613,2.00741 -69.551873,2.0112 -72.051779,-0.50656 -1.66005,-1.67192 -2.207829,-8.28361 -2.004324,-24.19223 l 0.280039,-21.89156 -8.197498,-0.0106 c -4.508623,-0.005 -11.10141,-0.81636 -14.650638,-1.80217 -12.550489,-3.48514 -25.625154,-24.49892 -27.396249,-44.03085 -0.839379,-9.25683 -0.305487,-11.75263 4.680739,-21.8811 9.431007,-19.1571 18.87878,-23.80412 49.891327,-24.53976 18.319839,-0.43454 20.492096,-0.86782 30.108759,-6.00528 8.656494,-4.62454 12.303444,-5.53696 22.131154,-5.53696 10.14691,0 12.87072,0.73125 19.78632,5.31194 4.41077,2.92158 8.99459,7.66586 10.18628,10.54284 2.17713,5.25607 2.03614,6.81456 -1.87715,20.74992 -2.94683,10.49371 -0.45187,15.60429 8.38584,17.17726 3.67337,0.6538 9.05408,2.58559 11.95715,4.29288 9.73969,5.72789 12.15725,5.70734 19.51415,-0.16592 6.65342,-5.31159 7.33573,-5.46619 20.95286,-4.74764 10.57405,0.55799 16.84751,1.99253 25.21876,5.76669 9.31261,4.19858 11.40718,4.61233 12.74959,2.51849 2.84703,-4.44065 5.11794,-14.60753 5.128,-22.95818 l 0.0106,-8.13669 -14.51535,-0.79656 c -17.15908,-0.94165 -26.14795,-4.88052 -35.15703,-15.4056 -9.99829,-11.68077 -14.61484,-35.17302 -11.6792,-59.432 2.19788,-18.16847 8.24962,-30.18841 22.03939,-43.77602 19.77197,-19.48212 41.24917,-26.15552 84.17705,-26.15552 33.21,0 48.99314,3.27863 63.98893,13.29244 11.8995,7.94618 18.76155,16.16498 23.1509,27.72829 1.68687,4.44394 3.87528,8.34929 4.86309,8.67856 2.87615,0.95871 14.44291,-10.17367 14.44291,-13.90052 0,-1.8673 -2.1244,-7.52544 -4.72088,-12.57364 -4.10802,-7.98697 -4.73616,-11.34848 -4.83845,-25.89318 -0.1397,-19.86792 4.03704,-31.37974 14.96869,-41.25582 11.66337,-10.53715 19.84003,-13.62695 39.90269,-15.07841 16.1455,-1.16807 18.5589,-1.78655 22.16817,-5.68103 7.60642,-8.20746 29.33244,-11.82205 41.13126,-6.84306 6.81118,2.87425 15.31404,15.07386 19.11952,27.43199 3.61615,11.74332 5.48974,52.4933 2.65689,57.78653 -1.88381,3.51992 -1.09425,4.90501 8.3067,14.57208 l 10.38836,10.68244 8.29471,-9.4081 c 11.61474,-13.17373 18.83974,-16.40492 40.3608,-18.0503 14.65838,-1.1207 19.28284,-2.21414 26.25425,-6.20775 11.28168,-6.46278 19.73798,-8.2077 28.76397,-5.93533 21.27977,5.35734 34.70064,38.67972 30.4807,75.67979 l -1.6691,14.63453 9.46898,9.69829 c 10.61596,10.87302 15.64548,19.80392 19.51143,34.64637 3.67386,14.10488 3.29898,23.86996 -1.66814,43.45084 -6.00595,23.67617 -13.04035,35.98884 -28.49428,49.87494 -13.15816,11.82325 -16.47806,17.56339 -16.46117,28.46166 0.0264,17.09816 7.17566,26.92775 21.99736,30.24471 8.04162,1.79962 11.18332,1.64015 21.76705,-1.10491 15.16443,-3.93314 19.46647,-2.50082 25.09493,8.35514 3.03875,5.86106 4.20075,12.07001 5.19934,27.78148 0.84143,13.23894 2.57461,23.88284 5.01365,30.79012 2.05022,5.80613 4.20007,16.13747 4.77745,22.9585 1.14915,13.57571 -0.51251,18.62183 -10.18687,30.93534 -6.58627,8.383 -13.64241,11.46191 -29.68684,12.95365 -7.25768,0.67479 -16.9718,2.43499 -21.58696,3.91157 -12.03964,3.85199 -38.25263,2.4847 -44.7038,-2.33178 -3.79181,-2.831 -7.16869,-7.05375 -8.67869,-10.85261 -0.10645,-0.26768 -4.23889,2.23568 -9.18329,5.56301 -7.635,5.13796 -11.05293,6.22401 -22.67921,7.20619 -7.52915,0.63609 -17.99145,1.89352 -23.24954,2.79432 -12.77669,2.18884 -29.31001,2.05502 -37.94458,-0.30713 -4.57831,-1.25249 -9.96027,-4.93819 -15.40069,-10.54679 -4.59962,-4.74182 -8.754,-8.6215 -9.23197,-8.6215 -0.47795,0 -3.93791,2.77257 -7.6888,6.16128 -4.76399,4.30397 -9.40631,6.61423 -15.40012,7.66391 -9.46614,1.65776 -91.15652,1.07415 -93.98091,-0.67142 -0.97381,-0.60185 -5.51356,0.0818 -10.08833,1.51922 -10.09879,3.17307 -35.01227,5.41151 -61.10084,5.48982 -22.96741,0.069 -28.73526,-2.47434 -37.85992,-16.69389 -3.08719,-4.81098 -6.12435,-8.74182 -6.74925,-8.73521 -0.62488,0.007 -3.04473,2.81436 -5.37745,6.23944 -7.08287,10.39961 -13.08101,13.52295 -28.58811,14.88637 -10.82626,0.95189 -14.81802,2.08192 -18.03729,5.10628 -4.68404,4.40042 -18.26116,8.973 -26.38822,8.88716 -2.9912,-0.0315 -9.59705,-1.49405 -14.67967,-3.24989 z m 25.75669,-24.27868 c 4.9081,-5.95438 5.7,-6.30666 9.88778,-4.39859 16.57615,7.55261 36.19462,-6.98523 46.81158,-34.6887 5.2803,-13.77818 6.64543,-42.1434 2.60129,-54.05095 -4.69969,-13.83785 -11.54872,-20.03057 -22.15343,-20.03057 -9.08374,0 -20.44163,7.94107 -25.6689,17.94684 -2.89221,5.53615 -3.31152,18.28101 -0.65544,19.92256 1.00466,0.62091 5.77603,0.11665 10.60308,-1.12041 8.27844,-2.1217 8.99842,-2.02715 12.68871,1.66635 3.07784,3.0805 3.89407,5.88142 3.82695,13.13212 -0.16345,17.65743 -11.8776,33.16166 -22.95458,30.38152 -8.17454,-2.05167 -9.22667,-6.46726 -10.54662,-44.26221 -1.1611,-33.24615 -1.00666,-36.1001 2.59507,-47.95804 4.28748,-14.11558 3.3239,-18.76837 -4.28221,-20.67737 -7.25195,-1.82014 -14.60311,2.70286 -25.57186,15.73371 -12.53609,14.89288 -13.50563,20.5896 -4.93099,28.9729 l 5.48064,5.35833 0.92321,34.02598 c 0.8758,32.27823 0.72985,34.405 -2.84147,41.40537 -5.22008,10.23221 -4.75943,13.48121 2.7942,19.70756 8.9545,7.38104 14.66452,7.09641 21.39299,-1.0664 z m 122.80515,-0.67689 c 2.72415,-1.02925 7.11174,-3.93072 9.75021,-6.44769 l 4.79722,-4.57635 3.68779,4.68828 c 6.18007,7.85667 12.51462,6.44416 24.39952,-5.44074 5.57095,-5.57095 10.5201,-12.17485 10.99809,-14.67532 1.26879,-6.63728 -1.27157,-11.8802 -6.37724,-13.16163 -2.46111,-0.61771 -4.54872,-1.2352 -4.63912,-1.37222 -0.0904,-0.13706 -0.77775,-13.65656 -1.52743,-30.04341 -1.27653,-27.90292 -1.61355,-29.99714 -5.30885,-32.98941 -4.68652,-3.79493 -13.8681,-4.16863 -18.53718,-0.7545 -3.06031,2.23773 -3.3442,5.10109 -3.4153,34.44736 l -0.0776,32.00673 -5.74593,5.13995 c -7.56034,6.763 -14.07495,6.7199 -20.64389,-0.13653 -4.10418,-4.28386 -5.19505,-7.2098 -5.79853,-15.55283 -1.20089,-16.60254 5.1325,-24.91603 18.98149,-24.91603 6.90117,0 10.56775,-4.23445 10.56775,-12.20445 0,-12.63331 -12.73872,-21.42807 -27.12747,-18.72873 -18.70672,3.50941 -32.64792,35.96768 -27.74043,64.58598 5.21794,30.42859 23.95497,47.61322 43.75689,40.13154 z m 227.90677,0.0345 c 3.59878,-0.99948 8.96661,-3.85637 11.92851,-6.34864 l 5.3853,-4.53143 4.26223,4.59904 c 5.45759,5.88883 9.3017,5.79776 17.8019,-0.4217 8.95658,-6.5534 12.3216,-10.47265 15.47821,-18.02747 3.12231,-7.47275 0.62352,-14.45005 -5.49013,-15.32993 -4.76606,-0.68595 -5.25547,-4.12596 -6.7199,-47.23467 -0.92842,-27.32942 -0.64988,-33.33159 1.92593,-41.50302 2.62809,-8.33725 2.69982,-10.20482 0.56362,-14.67499 -1.46163,-3.05862 -4.09246,-5.35595 -6.53049,-5.70269 -6.10509,-0.86824 -16.95749,7.23892 -25.83758,19.30164 -9.81295,13.32996 -10.66435,21.18826 -2.78557,25.71007 6.21074,3.56447 7.22709,9.19071 7.22709,40.00721 0,19.42033 -0.38385,22.05678 -3.99059,27.40882 -11.76714,17.46125 -30.78758,5.64064 -29.07266,-18.06775 0.91557,-12.65767 4.61438,-16.98516 16.3995,-19.18685 11.16795,-2.08639 13.14488,-4.07578 13.14488,-13.22766 0,-11.4987 -8.21726,-18.25865 -22.19485,-18.25865 -19.01638,0 -33.10501,22.4631 -33.10501,52.78306 0,24.72944 9.28349,44.35718 24.17844,51.1196 8.64684,3.92574 8.91788,3.95041 17.43117,1.58603 z m 107.24701,-3.30505 c 3.56931,-2.80762 6.14087,-3.21554 15.13126,-2.40033 22.62849,2.05189 39.10454,-11.55651 39.10454,-32.29839 0,-7.61436 -0.70052,-8.98441 -8.35731,-16.34487 -6.53295,-6.28009 -11.62201,-9.14776 -23.31252,-13.13654 -20.76033,-7.0834 -26.40816,-12.79374 -16.92647,-17.11387 3.59546,-1.63821 5.8782,-0.88744 16.16368,5.31601 12.70425,7.66231 19.87506,8.97324 24.38949,4.45881 3.47592,-3.47592 3.50212,-8.7785 0.0911,-18.44621 -6.19212,-17.55035 -15.3914,-23.29303 -25.09115,-15.6632 -3.97365,3.12567 -6.09275,3.44248 -16.29962,2.43671 -9.2996,-0.91635 -13.08196,-0.51553 -18.24218,1.93315 -9.65419,4.58121 -15.56883,13.34346 -16.48789,24.42606 -1.41316,17.04104 5.832,23.95492 33.92891,32.37743 14.6233,4.38358 18.24673,6.79314 18.88039,12.55538 0.36736,3.34057 -0.64852,4.71097 -4.53496,6.11755 -4.40344,1.5937 -6.877,0.80811 -20.4794,-6.50422 -16.33991,-8.78395 -22.64856,-10.07309 -27.16962,-5.55202 -8.92189,8.92188 7.44297,41.22105 20.88527,41.22105 2.21448,0 5.96137,-1.52211 8.32642,-3.38248 z M 448.0548,660.5738 c 3.67987,-0.92124 8.25055,-3.23486 10.15708,-5.14138 4.2705,-4.2705 2.49011,-8.54892 -6.99937,-16.82015 l -6.32953,-5.51696 v -16.64948 c 0,-18.67552 2.0838,-24.59365 9.7824,-27.78252 16.05149,-6.64875 22.22318,11.57306 16.69152,49.28138 l -2.96428,20.20701 3.96885,3.21376 c 7.32597,5.93222 20.54128,-0.79964 32.82421,-16.72062 10.34807,-13.413 9.73269,-22.49404 -1.80148,-26.5845 -2.48811,-0.88237 -3.08097,-3.2129 -3.0892,-12.14362 -0.0123,-14.30328 -2.5626,-29.63939 -6.20212,-37.30909 -4.08424,-8.60691 -10.4958,-12.30614 -21.1046,-12.17654 -10.14226,0.12386 -17.10792,3.25603 -24.47575,11.00562 -5.6626,5.956 -8.02814,6.80433 -8.02814,2.87902 0,-4.5948 -3.88016,-11.20319 -7.06741,-12.03667 -4.98208,-1.30284 -13.18624,3.66726 -22.75557,13.78542 -12.19999,12.89969 -11.48671,21.12639 2.11187,24.3572 4.63282,1.1007 4.85488,1.65285 5.22514,12.99222 0.79875,24.46174 0.76616,24.61027 -7.17128,32.69796 -6.954,7.08559 -7.2426,7.78884 -5.38412,13.12005 1.357,3.89272 3.40431,5.94923 6.62637,6.65617 2.56444,0.56265 5.45437,1.26958 6.42206,1.57093 2.76203,0.86016 22.1676,-1.03372 29.56335,-2.88521 z m -2.29211,-151.81563 c 20.8835,-7.49412 34.71868,-22.97727 32.86706,-36.78203 -2.15525,-16.06864 -15.13125,-19.28952 -36.64317,-9.09545 -21.46413,10.1714 -35.47759,11.1463 -51.36756,3.57362 -16.32045,-7.77783 -37.14854,-33.05073 -50.31622,-61.05386 -10.2724,-21.84587 -10.25262,-21.45665 -1.21275,-23.87445 10.84694,-2.90111 22.11053,-12.11045 27.40199,-22.40446 3.85172,-7.49314 4.49033,-11.01424 4.46446,-24.61585 -0.025,-13.08971 -0.7322,-17.19664 -4.03493,-23.42885 -9.43134,-17.7968 -23.43404,-28.22329 -45.47388,-33.86014 -33.98943,-8.69302 -72.59195,0.0145 -93.91115,21.18352 -19.91346,19.77313 -23.1185,51.24847 -7.64251,75.05374 8.99848,13.84153 25.56481,18.8151 35.16506,10.55731 6.65841,-5.72731 6.37489,-13.20361 -0.86239,-22.7405 -7.61392,-10.03322 -12.44441,-20.4045 -12.48328,-26.80213 -0.14568,-23.98989 48.35162,-39.3369 78.18389,-24.74134 30.63498,14.98831 20.27223,51.83061 -14.61889,51.97395 l -9.40634,0.0386 1.24772,-18.30583 c 1.22754,-18.00951 1.18044,-18.34351 -2.9097,-20.63387 -6.52117,-3.65167 -26.12563,-2.89082 -33.31493,1.29295 -8.35033,4.85944 -8.75021,10.75794 -1.42118,20.96343 l 5.72166,7.96729 0.77597,39.38152 0.77596,39.38151 -5.50195,9.61641 c -3.02607,5.28902 -5.50194,11.69734 -5.50194,14.24069 0,9.92828 11.80954,14.74382 22.54415,9.19273 6.29718,-3.2564 21.66321,-19.61548 28.39435,-30.22942 3.37621,-5.32373 5.36657,-10.7742 5.37194,-14.71065 0.007,-5.52206 0.91068,-4.25291 7.72234,10.85163 20.24409,44.89044 49.58377,73.65694 82.09964,80.49571 10.79637,2.27071 34.34948,0.93662 43.88658,-2.48582 z M 100.12226,500.21972 C 109.36728,491.19922 111.47,488.1135 111.47,483.567 c 0,-3.72147 -1.13659,-6.18887 -3.41175,-7.4065 -3.91526,-2.09538 -4.77745,-7.21379 -6.13278,-36.40741 l -0.91159,-19.63546 9.18679,-1.2442 c 15.7221,-2.12931 20.62311,-6.0312 20.62311,-16.41895 0,-12.33547 -11.33826,-16.56995 -20.04211,-7.48509 -4.79963,5.00973 -5.17952,5.0879 -28.04028,5.77026 -28.608491,0.85389 -37.478413,4.17306 -43.302482,16.20398 -10.356709,21.39411 1.816631,44.20435 23.590922,44.20435 11.885583,0 16.770333,-3.86026 16.770333,-13.25302 0,-8.7685 -3.101965,-11.04134 -13.036034,-9.55162 -7.472464,1.12057 -8.114526,0.89532 -10.143781,-3.55841 -1.776384,-3.89873 -1.694935,-5.59621 0.452451,-9.42932 2.907352,-5.18967 14.212665,-9.82539 20.260011,-8.30761 3.57297,0.89676 3.814591,2.32347 5.007912,29.57042 1.01625,23.20391 0.727664,30.89693 -1.52309,40.60199 -2.94941,12.71761 -3.527784,20.97467 -1.603947,22.89851 3.626536,3.62655 10.269663,0.48135 20.908575,-9.8992 z m 43.45743,5.70134 c 7.89281,-2.19193 8.61353,-6.19768 2.19929,-12.22353 -3.57737,-3.36077 -4.39858,-5.80857 -4.39858,-13.11098 0,-9.46815 3.53789,-16.79942 8.107,-16.79942 4.40736,0 8.16221,11.77685 6.96789,21.85435 -2.49935,21.08929 -2.4809,21.19382 3.84963,21.80394 13.02237,1.25506 27.59076,-18.61426 18.51436,-25.25108 -2.06147,-1.50738 -3.68185,-6.78945 -5.07594,-16.54643 -1.26471,-8.85154 -3.23868,-15.64814 -5.16201,-17.77339 -3.96351,-4.37963 -11.79181,-4.36858 -21.48277,0.0303 l -7.4776,3.39421 v -11.13038 c 0,-17.86958 -1.34632,-22.1268 -6.99748,-22.1268 -6.49871,0 -16.31687,6.9129 -18.45565,12.99449 -1.51058,4.29531 -1.15866,5.44476 2.59845,8.48709 4.06081,3.28825 4.41567,4.91965 5.41358,24.88779 0.79215,15.85084 0.47812,22.50473 -1.21606,25.76748 -1.25619,2.41922 -3.28105,6.26676 -4.49969,8.55006 -1.91419,3.58652 -1.76042,4.48438 1.12996,6.59788 3.9475,2.88648 16.68334,3.17784 25.98562,0.59446 z m 81.6992,-5.30299 c 7.66009,-2.90233 12.87044,-8.69959 12.87044,-14.3202 0,-6.25854 -3.96333,-8.01331 -11.25591,-4.98356 -9.59104,3.98464 -16.02518,4.20366 -19.57312,0.66626 -3.15509,-3.14571 -2.85094,-3.27072 10.64508,-4.37492 12.28172,-1.00487 14.37865,-1.70132 18.08069,-6.00522 3.22154,-3.74527 3.94258,-6.1216 3.12518,-10.29965 -2.17626,-11.12373 -13.45408,-20.37776 -24.84134,-20.38358 -8.29189,-0.004 -20.32864,7.04138 -23.995,14.04531 -6.27689,11.99083 -2.95723,32.05752 6.75651,40.84168 7.03966,6.36597 18.79325,8.37326 28.18747,4.81388 z m 418.35876,-16.65534 c 21.70529,-5.6535 37.45266,-18.36621 46.40431,-37.46179 6.5302,-13.93013 6.72666,-38.02238 0.44507,-54.57792 -7.89812,-20.81601 -20.85411,-30.32208 -60.22978,-44.19183 -26.66533,-9.39263 -33.08549,-14.31933 -30.75584,-23.60142 1.53162,-6.10246 10.67806,-11.63911 19.24146,-11.64749 7.49192,-0.007 12.2886,2.02037 18.79826,7.94663 13.98613,12.73266 24.89126,16.15931 30.7663,9.66747 7.4252,-8.20476 -3.19206,-39.73209 -16.05817,-47.68378 -6.4237,-3.97007 -14.49407,-3.46547 -18.32086,1.14551 -1.53673,1.85165 -6.38399,2.53638 -18.15577,2.5647 -12.32219,0.0297 -17.90183,0.87169 -23.97681,3.61842 -16.62051,7.51473 -26.93933,22.27565 -26.96248,38.56939 -0.0181,12.78034 4.48434,21.83636 14.49998,29.16416 8.16031,5.97039 10.6279,7.08488 44.61621,20.15101 22.04235,8.47376 28.38386,13.20092 34.05934,25.38892 7.16993,15.39734 4.32959,32.14891 -7.42344,43.78129 -8.64701,8.55823 -14.5361,10.76021 -28.87921,10.79818 -16.60001,0.044 -27.9105,-4.93594 -34.77696,-15.31185 -9.63068,-14.55294 -4.81248,-24.4255 15.75653,-32.28536 13.7702,-5.26189 18.18957,-10.11357 16.44551,-18.05423 -1.91345,-8.7119 -8.37801,-13.16508 -20.37063,-14.03255 -20.4568,-1.47971 -37.99985,7.79576 -46.31897,24.49003 -3.85049,7.72695 -4.63153,11.68489 -4.63037,23.46464 10e-4,11.92035 0.79551,15.84581 5.00355,24.72651 10.85197,22.90212 34.44511,35.69169 66.32239,35.95263 7.78013,0.0637 18.8053,-1.09789 24.50038,-2.58127 z M 496.97308,411.28789 c 29.31666,-10.22137 45.77554,-32.44153 45.92151,-61.9959 0.12263,-24.82814 -9.03887,-44.34309 -26.15135,-55.70513 -5.17221,-3.43416 -21.08145,-10.48668 -35.35385,-15.67228 -19.54356,-7.10076 -27.14427,-10.73782 -30.78825,-14.73262 -5.75119,-6.30488 -5.7571,-6.35975 -1.44918,-13.42468 4.46235,-7.31815 13.93607,-10.58316 22.90819,-7.89505 3.57084,1.06985 11.43573,5.91244 17.47752,10.7613 12.94684,10.39052 17.91343,12.07463 23.94817,8.12053 6.37058,-4.17417 7.03492,-9.8992 2.77582,-23.92132 -2.83434,-9.33147 -5.62317,-14.32632 -11.3167,-20.26841 -8.6996,-9.07941 -15.22503,-10.25744 -22.98914,-4.15019 -4.17675,3.28544 -6.16465,3.59715 -16.51205,2.58914 -15.52168,-1.51206 -27.17149,1.96946 -37.75081,11.28176 -20.56752,18.10425 -20.61434,45.53908 -0.10328,60.4869 4.67285,3.40542 18.39291,9.90261 30.48902,14.4382 36.42682,13.65871 42.7489,17.74984 48.42617,31.33749 3.52895,8.44597 3.67958,23.23815 0.31726,31.15729 -7.55088,17.78426 -28.21857,27.05828 -49.1415,22.05082 -11.93629,-2.8567 -20.88245,-9.17955 -24.86613,-17.57456 -6.41685,-13.52251 -0.85836,-23.17618 16.77298,-29.13038 13.67822,-4.61919 17.28844,-7.86364 17.28844,-15.5368 0,-8.51004 -7.49358,-15.63166 -18.12574,-17.22606 -18.36389,-2.75383 -38.21726,7.17466 -47.66924,23.83895 -4.93881,8.70738 -5.45876,11.06294 -5.42663,24.58525 0.0281,11.83226 0.89429,16.87077 4.14798,24.12848 7.52667,16.78914 27.22039,31.08954 48.97173,35.56035 12.17128,2.5017 36.64226,0.92625 48.19906,-3.10308 z"
       style="fill:#000000;fill-opacity:1;stroke:#000000;stroke-width:1.99495029;stroke-miterlimit:4;stroke-dasharray:none;stroke-dashoffset:0;stroke-opacity:1" /><path
       transform="scale(26.458333)"
       inkscape:connector-curvature="0"
       id="path4607"
       d="m 304.56802,410.61109 c -6.57572,-3.45921 -6.59789,-3.50872 -6.59789,-14.73471 0,-16.21368 3.71299,-15.09633 9.71406,2.92323 2.5986,7.80289 4.44505,14.43351 4.10322,14.73472 -0.34183,0.3012 -3.59056,-1.01425 -7.21939,-2.92324 z"
       style="fill:#000000;fill-opacity:1;stroke:#000000;stroke-width:1.99495029;stroke-miterlimit:4;stroke-dasharray:none;stroke-dashoffset:0;stroke-opacity:1" /></g></svg>